<svg viewBox="0 0 100 100" fill="none" xmlns="http://www.w3.org/2000/svg">
<path d="M11.3654 80.3461C10.4932 82.3815 9.79697 84.4768 9.28076 86.6104C8.55878 89.5945 11.0578 92.8112 15.1825 92.8112H50.1825L85.1825 92.8112C89.3072 92.8112 91.8062 89.5945 91.0842 86.6104C90.568 84.4768 89.8717 82.3815 88.9996 80.3461C86.8971 75.4396 83.8127 70.9747 79.9172 67.209C76.0215 63.4432 71.3912 60.4508 66.2881 58.4075C61.1848 56.3641 55.7119 55.3112 50.1825 55.3112C44.6531 55.3112 39.1801 56.3641 34.0769 58.4075C28.9738 60.4508 24.3434 63.4432 20.4477 67.209C16.5523 70.9747 13.4678 75.4396 11.3654 80.3461Z" stroke="black" stroke-width="6"/>
<circle r="18" transform="matrix(-1 0 0 1 50 25)" stroke="black" stroke-width="6"/>
</svg>
