<svg width="142" height="89" viewBox="0 0 142 89" fill="none" xmlns="http://www.w3.org/2000/svg">
<path d="M71 55.3812L131.315 29.9282V38.3192L140.697 43.6337V64.052L142 65.264L140.176 66.6237L136.944 64.052L134.263 47.5495L128.366 43.6337L123.273 46.4308L128.366 49.2277V69.3664L129.669 70.5785L127.845 71.938L124.613 69.3664L121.396 52.8638L114.963 49.2277L110.674 51.4654L114.963 54.2624L115.231 74.9604L116.534 76.1725L114.71 77.5322L111.478 74.9604L108.529 58.458L101.828 55.3812L97.5384 57.0594L101.828 59.8564L102.095 80.8342L103.399 82.0463L101.574 83.406L98.3427 80.8342L95.662 64.052L89.2284 60.6955L84.4033 62.6535L89.2284 65.7303V86.4282L90.5314 87.6403L88.7072 89L85.4755 86.4282L83.0629 69.3664L76.3614 65.7303L71 68.2475L65.6386 65.7303L58.9371 69.3664L56.5245 86.4282L53.2928 89L51.4685 87.6403L52.7716 86.4282V65.7303L57.5967 62.6535L52.7716 60.6955L46.338 64.052L43.6573 80.8342L40.4258 83.406L38.6013 82.0463L39.9045 80.8342L40.1725 59.8564L44.4616 57.0594L40.1725 55.3812L33.4709 58.458L30.5221 74.9604L27.2904 77.5322L25.4662 76.1725L26.7692 74.9604L27.0373 54.2624L31.3264 51.4654L27.0373 49.2277L20.6037 52.8638L17.387 69.3664L14.1553 71.938L12.331 70.5785L13.6341 69.3664V49.2277L18.7273 46.4308L13.6341 43.6337L7.73665 47.5495L5.056 64.052L1.82434 66.6237L0 65.264L1.30309 64.052V43.6337L10.6854 38.3192V29.9282L71 55.3812Z" fill="white"/>
<path fill-rule="evenodd" clip-rule="evenodd" d="M10.6854 25.1733L71 50.6264L131.315 25.1733L71 0L10.6854 25.1733ZM70.4639 15.3837L77.7017 12.0273L86.5479 15.9431L83.5991 17.6214L81.4546 16.7823C80.7397 18.4604 77.1656 22.6001 68.5875 22.3763C57.865 22.0966 55.7869 18.1807 56.055 15.9431C56.2743 14.1122 59.1159 12.2137 61.8858 11.1881C64.6559 10.1626 71.8043 10.349 71.8043 10.349L71.2681 12.8664C68.1556 12.5867 60.8136 12.7924 60.8136 16.2228C60.8136 19.8589 72.8765 19.7572 75.021 18.7401C76.6881 17.9495 79.5782 15.6634 77.7017 14.5446L72.6084 16.7823L70.4639 15.3837ZM47.6784 17.901L33.2029 24.3343L35.6155 25.7327L46.3381 20.9778L46.8743 30.7673L49.8229 31.8863L64.5665 25.453L61.6177 24.3343L50.6271 28.8095L50.3591 19.0198L47.6784 17.901ZM60.6573 33.4945L69.7714 29.5787L67.0909 28.1801L53.9556 33.4945L71.1117 41.6059L84.6713 35.9341L81.4546 34.5357L71.1117 38.8088L67.3588 36.851L76.0932 33.3314L73.4127 31.8863L64.6781 35.4524L60.6573 33.4945ZM73.4127 25.453L90.5689 33.2847L94.5898 31.6066L83.5991 26.5718L106.117 27.1312L109.065 25.453L90.8368 17.901L87.0839 19.5792L98.3427 24.3343L75.5572 23.7747L73.4127 25.453Z" fill="white"/>
</svg>
