<svg viewBox="0 0 100 100" fill="none" xmlns="http://www.w3.org/2000/svg">
<path d="M32 62C26.9628 58.2221 23.242 52.9551 21.3646 46.945C19.4872 40.935 19.5484 34.4865 21.5395 28.5132C23.5306 22.5398 27.3507 17.3443 32.4587 13.6627C37.5667 9.98112 43.7035 8 50 8C56.2965 8 62.4333 9.98112 67.5413 13.6627C72.6493 17.3443 76.4694 22.5398 78.4605 28.5132C80.4516 34.4865 80.5128 40.935 78.6354 46.945C76.758 52.9551 73.0372 58.2221 68 62C65.6574 64.3189 63.8936 67.1567 62.8512 70.2837C61.8089 73.4108 61.5173 76.7393 62 80C62 83.1826 60.7357 86.2348 58.4853 88.4853C56.2348 90.7357 53.1826 92 50 92C46.8174 92 43.7652 90.7357 41.5147 88.4853C39.2643 86.2348 38 83.1826 38 80C38.4827 76.7393 38.1911 73.4108 37.1488 70.2837C36.1064 67.1567 34.3426 64.3189 32 62" stroke="var(--icon-color)" stroke-width="6.25" stroke-linecap="round" stroke-linejoin="round"/>
<path d="M36 68H64" stroke="var(--icon-color)" stroke-width="6.25" stroke-linecap="round" stroke-linejoin="round"/>
</svg>
