<svg viewBox="0 0 100 100" fill="none" xmlns="http://www.w3.org/2000/svg">
<g clip-path="url(#clip0)">
<path d="M67.4237 -0.10791H35.0577C32.0202 -0.10791 29.5577 2.35452 29.5577 5.39209V72.781C29.5577 75.2662 31.5725 77.281 34.0577 77.281H85.5257C89.6678 77.281 93.0257 73.9231 93.0257 69.781V25.494C93.0257 24.3005 92.5516 23.156 91.7076 22.312L70.6057 1.21011C69.7618 0.366198 68.6172 -0.10791 67.4237 -0.10791Z" fill="var(--icon-color)" stroke="var(--color-background)" stroke-width="5"/>
<path d="M65.468 1V25.4498C65.468 26.5543 66.3634 27.4498 67.468 27.4498H93.3099" stroke="var(--color-background)" stroke-width="4"/>
<path d="M17 18.3131H41.1234C41.919 18.3131 42.6821 18.6292 43.2447 19.1918L73.726 49.6731C74.2886 50.2357 74.6047 50.9988 74.6047 51.7944V94.8387C74.6047 96.4956 73.2615 97.8387 71.6047 97.8387H12C10.3431 97.8387 9 96.4956 9 94.8387V26.3131C9 21.8948 12.5817 18.3131 17 18.3131Z" fill="var(--icon-color)" stroke="var(--color-background)" stroke-width="4"/>
<path d="M39.0181 20.4894V51.8996C39.0181 53.0042 39.9135 53.8996 41.0181 53.8996H73.8204" stroke="var(--color-background)" stroke-width="4"/>
</g>
<defs>
<clipPath id="clip0">
<rect width="100" height="100" fill="var(--color-background)"/>
</clipPath>
</defs>
</svg>
