<svg viewBox="0 0 100 100" fill="none" xmlns="http://www.w3.org/2000/svg">
<path d="M39.141 35.86C36.3445 33.0624 32.7812 31.1569 28.9018 30.3847C25.0223 29.6126 21.0011 30.0083 17.3466 31.5218C13.692 33.0354 10.5684 35.5989 8.37071 38.888C6.17302 42.1771 5 46.0441 5 50C5 53.9559 6.17302 57.8229 8.37071 61.112C10.5684 64.4011 13.692 66.9646 17.3466 68.4782C21.0011 69.9917 25.0223 70.3874 28.9018 69.6153C32.7812 68.8431 36.3445 66.9376 39.141 64.14C43.5785 60.1154 47.2566 55.3259 50 50C52.7434 44.6741 56.4215 39.8846 60.859 35.86C63.6555 33.0624 67.2188 31.1569 71.0982 30.3847C74.9777 29.6126 78.9989 30.0083 82.6534 31.5218C86.308 33.0354 89.4316 35.5989 91.6293 38.888C93.827 42.1771 95 46.0441 95 50C95 53.9559 93.827 57.8229 91.6293 61.112C89.4316 64.4011 86.308 66.9646 82.6534 68.4782C78.9989 69.9917 74.9777 70.3874 71.0982 69.6153C67.2188 68.8431 63.6555 66.9376 60.859 64.14C56.4215 60.1154 52.7434 55.3259 50 50C47.2566 44.6741 43.5785 39.8846 39.141 35.86" stroke="var(--icon-color)" stroke-width="6" stroke-linecap="round" stroke-linejoin="round"/>
</svg>
