<svg viewBox="0 0 100 100" fill="none" xmlns="http://www.w3.org/2000/svg">
<mask id="path-1-inside-1" fill="white">
<path d="M5 12C5 8.13401 8.13401 5 12 5H44.5385C45.643 5 46.5385 5.89543 46.5385 7V44.5385C46.5385 45.643 45.643 46.5385 44.5385 46.5385H7C5.89543 46.5385 5 45.643 5 44.5385V12Z"/>
</mask>
<path d="M5 12C5 8.13401 8.13401 5 12 5H44.5385C45.643 5 46.5385 5.89543 46.5385 7V44.5385C46.5385 45.643 45.643 46.5385 44.5385 46.5385H7C5.89543 46.5385 5 45.643 5 44.5385V12Z" stroke="var(--icon-color)" stroke-width="18" mask="url(#path-1-inside-1)"/>
<rect x="21.6154" y="23" width="6.92308" height="6.92308" fill="var(--icon-color)"/>
<mask id="path-3-inside-2" fill="white">
<path d="M53.4615 7C53.4615 5.89543 54.357 5 55.4615 5H88C91.866 5 95 8.13401 95 12V44.5385C95 45.643 94.1046 46.5385 93 46.5385H55.4615C54.357 46.5385 53.4615 45.643 53.4615 44.5385V7Z"/>
</mask>
<path d="M53.4615 7C53.4615 5.89543 54.357 5 55.4615 5H88C91.866 5 95 8.13401 95 12V44.5385C95 45.643 94.1046 46.5385 93 46.5385H55.4615C54.357 46.5385 53.4615 45.643 53.4615 44.5385V7Z" stroke="var(--icon-color)" stroke-width="18" mask="url(#path-3-inside-2)"/>
<rect x="70.0769" y="23" width="6.92308" height="6.92308" fill="var(--icon-color)"/>
<mask id="path-5-inside-3" fill="white">
<path d="M53.4615 55.4615C53.4615 54.357 54.357 53.4615 55.4615 53.4615H93C94.1046 53.4615 95 54.357 95 55.4615V88C95 91.866 91.866 95 88 95H55.4615C54.357 95 53.4615 94.1046 53.4615 93V55.4615Z"/>
</mask>
<path d="M53.4615 55.4615C53.4615 54.357 54.357 53.4615 55.4615 53.4615H93C94.1046 53.4615 95 54.357 95 55.4615V88C95 91.866 91.866 95 88 95H55.4615C54.357 95 53.4615 94.1046 53.4615 93V55.4615Z" stroke="var(--icon-color)" stroke-width="18" mask="url(#path-5-inside-3)"/>
<rect x="70.0769" y="71.4615" width="6.92308" height="6.92308" fill="var(--icon-color)"/>
<mask id="path-7-inside-4" fill="white">
<path d="M5 55.4615C5 54.357 5.89543 53.4615 7 53.4615H44.5385C45.643 53.4615 46.5385 54.357 46.5385 55.4615V93C46.5385 94.1046 45.643 95 44.5385 95H12C8.13401 95 5 91.866 5 88V55.4615Z"/>
</mask>
<path d="M5 55.4615C5 54.357 5.89543 53.4615 7 53.4615H44.5385C45.643 53.4615 46.5385 54.357 46.5385 55.4615V93C46.5385 94.1046 45.643 95 44.5385 95H12C8.13401 95 5 91.866 5 88V55.4615Z" stroke="var(--icon-color)" stroke-width="18" mask="url(#path-7-inside-4)"/>
<rect x="21.6154" y="71.4615" width="6.92308" height="6.92308" fill="var(--icon-color)"/>
</svg>
