<svg viewBox="0 0 100 100" fill="none" xmlns="http://www.w3.org/2000/svg">
<path d="M90 45C88.7772 36.1823 84.6953 28.012 78.3832 21.7478C72.071 15.4837 63.8788 11.473 55.0684 10.3338C46.2579 9.1945 37.3181 10.9898 29.626 15.4431C21.9339 19.8965 15.9162 26.7607 12.5 34.9786M10 14.9358V34.9786H30" stroke="var(--icon-color)" stroke-width="7" stroke-linecap="round" stroke-linejoin="round"/>
<path d="M10 55C11.2228 63.8177 15.3047 71.988 21.6168 78.2522C27.929 84.5164 36.1212 88.527 44.9316 89.6662C53.7421 90.8055 62.6819 89.0102 70.374 84.5569C78.0661 80.1035 84.0838 73.2393 87.5 65.0214M90 85.0642V65.0214H70" stroke="var(--icon-color)" stroke-width="7" stroke-linecap="round" stroke-linejoin="round"/>
</svg>
