<svg viewBox="0 0 100 100" fill="none" xmlns="http://www.w3.org/2000/svg">
<g clip-path="url(#clip0)">
<path d="M20.75 11H69.5L89 30.5V79.25C89 81.8359 87.9728 84.3158 86.1443 86.1443C84.3158 87.9728 81.8359 89 79.25 89H20.75C18.1641 89 15.6842 87.9728 13.8557 86.1443C12.0272 84.3158 11 81.8359 11 79.25V20.75C11 18.1641 12.0272 15.6842 13.8557 13.8557C15.6842 12.0272 18.1641 11 20.75 11" stroke="var(--icon-color)" stroke-width="6.25" stroke-linecap="round" stroke-linejoin="round"/>
<path d="M50 69C55.5228 69 60 64.7467 60 59.5C60 54.2533 55.5228 50 50 50C44.4772 50 40 54.2533 40 59.5C40 64.7467 44.4772 69 50 69Z" stroke="var(--icon-color)" stroke-width="6.25" stroke-linecap="round" stroke-linejoin="round"/>
<path d="M60 11V31H31V11" stroke="var(--icon-color)" stroke-width="6.25" stroke-linecap="round" stroke-linejoin="round"/>
</g>
<defs>
<clipPath id="clip0">
<rect width="100" height="100" fill="white"/>
</clipPath>
</defs>
</svg>
